<svg xmlns="http://www.w3.org/2000/svg" version="1.1" xmlns:xlink="http://www.w3.org/1999/xlink" width="512" height="512" x="0" y="0" viewBox="0 0 512 512" style="enable-background:new 0 0 512 512" xml:space="preserve"><g><path d="M137.489 82.979h-.125c-5.523 0-10 4.477-10 10s4.477 10 10 10h.125c5.523 0 10-4.477 10-10s-4.477-10-10-10z" fill="#999999" opacity="1" data-original="#000000"></path><path d="M472 82.979H182.068c-5.523 0-10 4.477-10 10s4.477 10 10 10H472c.518 0 1.027.039 1.535.078L445.592 131H315.15c-5.523 0-10 4.477-10 10s4.477 10 10 10h110.442L286.203 290.389c-16.654 16.654-43.752 16.655-60.406 0L38.465 103.057a19.964 19.964 0 0 1 1.535-.078h53c5.523 0 10-4.477 10-10s-4.477-10-10-10H40c-22.056 0-40 17.944-40 40v266.042c0 22.056 17.944 40 40 40h432c22.056 0 40-17.944 40-40V122.979c0-22.056-17.944-40-40-40zM20 389.021V122.979c0-2.957.662-5.756 1.819-8.284l139.182 139.182L20.699 394.179a19.914 19.914 0 0 1-.699-5.158zm452 20H40c-1.786 0-3.509-.258-5.158-.699L175.144 268.02l36.512 36.512C223.881 316.757 239.94 322.87 256 322.87s32.119-6.113 44.345-18.338l36.511-36.512 140.302 140.302a19.914 19.914 0 0 1-5.158.699zm20-20c0 1.786-.258 3.509-.699 5.158L350.999 253.878l139.182-139.183a19.845 19.845 0 0 1 1.819 8.284v266.042z" fill="#999999" opacity="1" data-original="#000000"></path><path d="M273.3 131h-.15c-5.523 0-10 4.477-10 10s4.477 10 10 10h.15c5.523 0 10-4.477 10-10s-4.477-10-10-10z" fill="#999999" opacity="1" data-original="#000000"></path></g></svg>