<svg xmlns="http://www.w3.org/2000/svg" version="1.1" xmlns:xlink="http://www.w3.org/1999/xlink" width="512" height="512" x="0" y="0" viewBox="0 0 512 512" style="enable-background:new 0 0 512 512" xml:space="preserve" class=""><g><path d="M280.216 444.769v20.517c0 21.658-17.557 39.214-39.214 39.214H50.264c-21.657 0-39.214-17.557-39.214-39.214V46.714C11.049 25.057 28.606 7.5 50.264 7.5h190.738c21.658 0 39.214 17.557 39.214 39.214v181.398" style="stroke-width:15;stroke-linecap:round;stroke-linejoin:round;stroke-miterlimit:10;" fill="none" stroke="#999999" stroke-width="15" stroke-linecap="round" stroke-linejoin="round" stroke-miterlimit="10" data-original="#000000" opacity="1"></path><path d="M174.527 45.428h-57.788a19.686 19.686 0 0 1-17.471-10.62L85.092 7.5h121.081l-14.175 27.308a19.687 19.687 0 0 1-17.471 10.62zM317.226 112.167c43.446 0 78.603 35.156 78.603 78.603M317.226 141.859c27.034 0 48.91 21.876 48.91 48.91M317.226 170.631c11.131 0 20.138 9.007 20.138 20.138M105.698 97.103c11.867-6.459 25.472-10.129 39.934-10.129 46.203 0 83.657 37.455 83.657 83.657 0 21.913-8.425 41.858-22.213 56.773M129.875 252.807c-38.67-7.37-67.9-41.359-67.9-82.176 0-20.542 7.404-39.355 19.689-53.916M441.889 444.769h37.959c11.655 0 21.103-9.448 21.103-21.103V249.215c0-11.655-9.448-21.103-21.103-21.103H150.979c-11.655 0-21.103 9.448-21.103 21.103v174.451c0 11.655 9.448 21.103 21.103 21.103h261.039" style="stroke-width:15;stroke-linecap:round;stroke-linejoin:round;stroke-miterlimit:10;" fill="none" stroke="#999999" stroke-width="15" stroke-linecap="round" stroke-linejoin="round" stroke-miterlimit="10" data-original="#000000" opacity="1"></path><path d="M129.877 269.878h371.074v44.316H129.877zM111.164 172.967l21.422 21.422 47.515-47.515M171.098 359.525h161.807M171.098 395h35.075" style="stroke-width:15;stroke-linecap:round;stroke-linejoin:round;stroke-miterlimit:10;" fill="none" stroke="#999999" stroke-width="15" stroke-linecap="round" stroke-linejoin="round" stroke-miterlimit="10" data-original="#000000" opacity="1"></path></g></svg>